<svg width="16" height="16" xmlns="http://www.w3.org/2000/svg" class="bi bi-layout-sidebar-inset-reverse">

 <g>
  <title>background</title>
  <rect fill="none" id="canvas_background" height="402" width="582" y="-1" x="-1"/>
 </g>
 <g>
  <title>Layer 1</title>
  <rect x="1" y="2" width="14" height="12" fill="#fff"/>
  <path stroke="#005fbf" fill="#003f7f" id="svg_1" d="m2,2a1,1 0 0 0 -1,1l0,10a1,1 0 0 0 1,1l12,0a1,1 0 0 0 1,-1l0,-10a1,1 0 0 0 -1,-1l-12,0zm12,-1a2,2 0 0 1 2,2l0,10a2,2 0 0 1 -2,2l-12,0a2,2 0 0 1 -2,-2l0,-10a2,2 0 0 1 2,-2l12,0z"/>
  <path fill="#56aaff" id="svg_2" d="m13,4a1,1 0 0 0 -1,-1l-2,0a1,1 0 0 0 -1,1l0,8a1,1 0 0 0 1,1l2,0a1,1 0 0 0 1,-1l0,-8z"/>
 </g>
</svg>
